<svg width="100%" height="100%" version="1.1" viewBox="0 0 100 100" xmlns="http://www.w3.org/2000/svg">
 <path d="m95.578 44.312-40.184-39.605c-2.9883-2.9453-7.8008-2.9453-10.789 0l-40.184 39.605c-1.4023 1.3828-0.42188 3.7578 1.543 3.7578h9.9531v43.73c0 3.1445 2.5547 5.6992 5.6992 5.6992h16.211v-31.18c0-3.1445 2.5547-5.6992 5.7109-5.6992h12.918c3.1562 0 5.7109 2.5547 5.7109 5.6992l0.003906 31.18h16.211c3.1445 0 5.6992-2.5547 5.6992-5.6992v-43.73h9.9531c1.9648 0 2.9453-2.375 1.543-3.7578z"/>
</svg>