<?xml version="1.0" standalone="no"?>
<!DOCTYPE svg PUBLIC "-//W3C//DTD SVG 20010904//EN"
 "http://www.w3.org/TR/2001/REC-SVG-20010904/DTD/svg10.dtd">
<svg version="1.0" xmlns="http://www.w3.org/2000/svg"
 width="700.000000pt" height="700.000000pt" viewBox="0 0 700.000000 700.000000"
 preserveAspectRatio="xMidYMid meet">
<metadata>
Created by potrace 1.14, written by Peter Selinger 2001-2017
</metadata>
<g transform="translate(0.000000,700.000000) scale(0.100000,-0.100000)"
fill="#000000" stroke="none">
<path d="M460 6540 l-105 -5 1 -663 c0 -472 3 -665 11 -670 8 -5 1255 -8 1319
-3 12 1 15 1324 3 1335 -8 8 -1084 13 -1229 6z"/>
<path d="M2074 6542 l-92 -3 1 -669 c0 -603 2 -670 16 -671 123 -6 1314 -2
1319 5 7 12 7 1324 0 1331 -6 6 -1091 12 -1244 7z"/>
<path d="M3682 6542 l-72 -3 2 -671 3 -671 650 0 c358 1 658 2 668 2 16 1 17
40 17 671 l0 670 -112 0 c-62 0 -331 2 -598 3 -267 1 -518 1 -558 -1z"/>
<path d="M2001 4945 c-4 -5 -6 -307 -6 -670 l1 -660 670 -3 670 -2 1 670 c0
368 -3 670 -6 671 -3 0 -302 2 -664 2 -430 1 -661 -1 -666 -8z"/>
<path d="M3624 4255 l1 -670 669 0 670 0 0 655 c1 360 0 662 -2 671 -3 14 -73
15 -671 15 l-668 0 1 -671z"/>
<path d="M5255 4922 c-3 -3 -5 -306 -5 -673 l0 -668 670 0 670 0 0 673 0 672
-665 0 c-366 0 -667 -2 -670 -4z"/>
<path d="M361 3350 c-8 -18 -7 -1317 1 -1325 4 -4 1001 -8 1309 -5 l26 0 -1
672 -1 672 -663 0 c-581 1 -665 -1 -671 -14z"/>
<path d="M2009 3355 c-1 -5 -2 -308 -3 -672 l-1 -663 670 0 670 0 -1 668 c-1
367 -2 669 -3 672 -2 10 -1331 5 -1332 -5z"/>
<path d="M2010 1117 l0 -672 663 1 c364 1 665 2 670 3 4 0 7 302 7 671 l0 670
-670 0 -670 0 0 -673z"/>
<path d="M3639 1788 c-5 -8 -4 -1338 1 -1339 3 -1 303 -2 668 -3 591 -2 662 0
663 14 4 45 4 1307 1 1318 -3 9 -146 12 -668 12 -365 0 -665 -1 -665 -2z"/>
<path d="M5234 1120 c0 -466 3 -670 10 -671 6 -1 307 -2 669 -3 582 -1 657 0
658 14 3 48 4 1307 1 1318 -3 9 -146 12 -671 12 l-667 0 0 -670z"/>
</g>
</svg>
